<?xml version="1.0" standalone="no"?>
<!DOCTYPE svg PUBLIC "-//W3C//DTD SVG 20010904//EN"
 "http://www.w3.org/TR/2001/REC-SVG-20010904/DTD/svg10.dtd">
<svg version="1.0" xmlns="http://www.w3.org/2000/svg"
 width="1275.000000pt" height="1651.000000pt" viewBox="0 0 1275.000000 1651.000000"
 preserveAspectRatio="xMidYMid meet">
<metadata>
Created by potrace 1.16, written by Peter Selinger 2001-2019
</metadata>
<g transform="translate(0.000000,1651.000000) scale(0.100000,-0.100000)"
fill="#000000" stroke="none">
<path d="M1580 15235 c0 -43 4 -75 10 -75 6 0 10 8 10 18 0 31 11 33 32 7 28
-36 43 -31 18 6 -21 29 -21 31 -4 50 9 10 14 22 10 26 -4 4 -18 -6 -31 -22
l-24 -30 -1 48 c0 26 -4 47 -10 47 -6 0 -10 -32 -10 -75z"/>
<path d="M1860 15300 c0 -5 5 -10 10 -10 6 0 10 5 10 10 0 6 -4 10 -10 10 -5
0 -10 -4 -10 -10z"/>
<path d="M1215 15286 c-23 -17 -27 -85 -6 -110 17 -21 55 -21 76 0 22 23 10
31 -14 10 -23 -21 -38 -14 -51 20 -19 50 24 96 58 62 7 -7 12 -8 12 -2 0 31
-44 43 -75 20z"/>
<path d="M1328 15245 c-8 -18 -9 -35 -2 -53 8 -22 15 -27 44 -27 29 0 36 5 44
27 15 42 -6 78 -44 78 -23 0 -33 -6 -42 -25z m60 3 c30 -30 -1 -94 -33 -68
-25 20 -13 80 15 80 3 0 11 -5 18 -12z"/>
<path d="M1462 15258 c-7 -7 -12 -26 -12 -43 0 -36 15 -55 45 -55 30 0 45 19
45 55 0 36 -15 55 -45 55 -12 0 -26 -5 -33 -12z m53 -43 c0 -33 -4 -40 -19
-40 -23 0 -36 33 -25 63 15 40 44 24 44 -23z"/>
<path d="M1700 15214 c0 -30 5 -54 10 -54 6 0 10 17 10 39 0 39 20 68 40 56 5
-3 10 -26 10 -51 0 -24 5 -44 11 -44 6 0 9 21 7 53 l-3 52 -42 1 -43 2 0 -54z"/>
<path d="M1843 15263 c13 -3 17 -15 17 -48 0 -37 -3 -44 -22 -48 -13 -2 2 -5
32 -5 42 -1 50 1 33 8 -19 8 -23 17 -23 55 0 43 -1 45 -27 44 -17 -1 -21 -3
-10 -6z"/>
<path d="M1960 15221 c11 -29 20 -54 20 -56 0 -3 7 -5 15 -5 8 0 15 2 15 5 0
2 9 27 20 56 13 31 16 49 9 47 -7 -2 -19 -24 -29 -48 l-17 -44 -15 44 c-8 24
-20 46 -26 48 -8 2 -5 -14 8 -47z"/>
<path d="M2078 15245 c-8 -18 -9 -35 -2 -53 8 -22 16 -27 43 -27 20 0 36 6 39
13 3 11 0 11 -16 1 -17 -10 -23 -10 -36 0 -26 22 -19 31 24 31 22 0 40 5 40
11 0 51 -71 69 -92 24z m62 0 c11 -13 8 -15 -20 -15 -28 0 -31 2 -20 15 7 8
16 15 20 15 4 0 13 -7 20 -15z"/>
<path d="M2210 15215 c0 -65 16 -74 22 -12 5 46 1 67 -13 67 -5 0 -9 -25 -9
-55z"/>
<path d="M2240 15261 c0 -5 11 -8 25 -8 14 0 25 3 25 8 0 5 -11 9 -25 9 -14 0
-25 -4 -25 -9z"/>
<path d="M2337 15264 c-18 -18 -5 -43 28 -54 19 -6 35 -16 35 -21 0 -17 -32
-23 -52 -10 -16 10 -19 10 -16 -1 3 -7 19 -13 39 -13 28 0 35 4 37 23 3 18 -3
25 -27 33 -17 6 -31 17 -31 25 0 17 31 18 49 2 11 -11 13 -10 9 2 -5 16 -59
26 -71 14z"/>
<path d="M2462 15258 c-7 -7 -12 -26 -12 -43 0 -36 15 -55 45 -55 25 0 52 16
42 26 -3 4 -13 1 -22 -6 -18 -15 -45 -6 -45 15 0 11 10 15 35 15 27 0 35 4 35
18 0 24 -19 42 -45 42 -12 0 -26 -5 -33 -12z m56 -15 c2 -8 -6 -13 -22 -13
-25 0 -33 10 -19 24 10 10 36 3 41 -11z"/>
</g>
</svg>
